<?xml version="1.0" encoding="UTF-8" standalone="no"?><svg xmlns="http://www.w3.org/2000/svg" xmlns:xlink="http://www.w3.org/1999/xlink" fill="#ffffff" height="31" preserveAspectRatio="xMidYMid meet" version="1" viewBox="0.5 0.5 31.0 31.0" width="31" zoomAndPan="magnify"><g id="change1_1"><path d="M13.48999,5.51001c-7.15997,0-12.98999,5.82996-12.98999,13C0.5,25.66998,6.33002,31.5,13.48999,31.5 c7.16998,0,13-5.83002,13-12.98999c0-0.83002-0.67999-1.5-1.5-1.5h-10v-10C14.98999,6.19,14.32001,5.51001,13.48999,5.51001z" fill="inherit"/><path d="M18.51001,0.5c-0.83002,0-1.5,0.66998-1.5,1.5v11.48999c0,0.83002,0.66998,1.5,1.5,1.5H30c0.83002,0,1.5-0.66998,1.5-1.5 C31.5,6.32996,25.66998,0.5,18.51001,0.5z" fill="inherit"/></g></svg>