<?xml version="1.0" encoding="UTF-8" standalone="no"?><svg xmlns="http://www.w3.org/2000/svg" xmlns:xlink="http://www.w3.org/1999/xlink" fill="#fafafa" height="144.4" preserveAspectRatio="xMidYMid meet" version="1" viewBox="0.0 0.0 144.4 144.4" width="144.4" zoomAndPan="magnify"><g id="change1_1"><path d="M72.2,0C32.4,0,0,32.4,0,72.2s32.4,72.2,72.2,72.2c39.8,0,72.2-32.4,72.2-72.2S112,0,72.2,0z M104.2,105.2c0,1.1-0.9,2-2,2 H42c-1.1,0-2-0.9-2-2v-2.3c0-4,3.2-7.2,7.2-7.2H97c4,0,7.2,3.2,7.2,7.2L104.2,105.2L104.2,105.2z M104.5,59.4l-31,30.3 c-0.4,0.4-0.9,0.6-1.4,0.6s-1-0.2-1.4-0.6l-31-30.3c-0.6-0.6-0.8-1.4-0.5-2.2s1-1.2,1.9-1.2h15.5V39c0-4.6,3.8-8.4,8.4-8.4h13.8 c4.6,0,8.4,3.8,8.4,8.4V56h15.9c0.8,0,1.5,0.5,1.9,1.2S105.1,58.9,104.5,59.4z" fill="inherit"/></g></svg>