<?xml version="1.0" encoding="UTF-8" standalone="no"?><svg xmlns="http://www.w3.org/2000/svg" xmlns:xlink="http://www.w3.org/1999/xlink" fill="#ffffff" height="14" preserveAspectRatio="xMidYMid meet" version="1" viewBox="1.0 1.0 14.0 14.0" width="14" zoomAndPan="magnify"><g id="change1_1"><path d="M8,1C4.134,1,1,4.134,1,8c0,3.866,3.134,7,7,7s7-3.134,7-7C15,4.134,11.866,1,8,1z M9,13H7v-2h2V13z M9.532,8.7 C9.219,8.83,9,9.213,9,9.631V10H7V9.631c0-1.243,0.693-2.333,1.766-2.778C9.212,6.668,9.5,6.333,9.5,6c0-0.533-0.701-1-1.5-1 S6.5,5.467,6.5,6h-2c0-1.654,1.57-3,3.5-3s3.5,1.346,3.5,3C11.5,7.163,10.746,8.197,9.532,8.7z" fill="inherit"/></g></svg>