<?xml version="1.0" encoding="UTF-8" standalone="no"?><svg xmlns="http://www.w3.org/2000/svg" xmlns:xlink="http://www.w3.org/1999/xlink" fill="#ffffff" height="22" preserveAspectRatio="xMidYMid meet" version="1" viewBox="6.0 5.0 20.0 22.0" width="20" zoomAndPan="magnify"><g id="change1_1"><path d="M25.85,13.15l-2-2a.495.495,0,0,0-.7.7L24.29,13H21V5.5a.4951.4951,0,0,0-.5-.5H8.25l5.21,4.35A1.487,1.487,0,0,1,14,10.5V22h6.5a.4951.4951,0,0,0,.5-.5V15H17.5a.5.5,0,0,1,0-1h6.79l-1.14,1.15a.495.495,0,0,0,.7.7l2-2A.4833.4833,0,0,0,25.85,13.15Z" fill="inherit"/><path d="M6.82,5.1162A.5.5,0,0,0,6,5.5v16a.4993.4993,0,0,0,.18.3838l6,5A.497.497,0,0,0,12.5,27a.4994.4994,0,0,0,.5-.5v-16a.4993.4993,0,0,0-.18-.3838Z" fill="inherit"/></g></svg>