<?xml version="1.0" encoding="UTF-8" standalone="no"?><svg xmlns="http://www.w3.org/2000/svg" xmlns:xlink="http://www.w3.org/1999/xlink" fill="#000000" height="634.7" preserveAspectRatio="xMidYMid meet" version="1" viewBox="0.0 0.0 557.2 634.7" width="557.2" zoomAndPan="magnify"><defs><clipPath id="a"><path d="M 210 575 L 348 575 L 348 634.738281 L 210 634.738281 Z M 210 575"/></clipPath><clipPath id="b"><path d="M 0 0 L 557.238281 0 L 557.238281 552 L 0 552 Z M 0 0"/></clipPath></defs><g><g clip-path="url(#a)" id="change1_1"><path d="M 278.621094 634.738281 C 309.953125 634.738281 336.59375 614.726562 346.496094 586.789062 C 348.488281 581.164062 344.394531 575.246094 338.425781 575.246094 L 218.816406 575.246094 C 212.851562 575.246094 208.753906 581.164062 210.746094 586.789062 C 220.648438 614.726562 247.289062 634.738281 278.621094 634.738281" fill="#ffffff"/></g><g clip-path="url(#b)" id="change2_1"><path d="M 550.445312 490.523438 L 532.269531 459.121094 C 512.765625 425.421875 502.496094 387.175781 502.496094 348.238281 L 502.496094 273.976562 C 502.496094 167.027344 427.476562 77.648438 327.203125 55.449219 L 327.203125 48.585938 C 327.203125 21.753906 305.453125 0.00390625 278.621094 0.00390625 C 251.789062 0.00390625 230.039062 21.753906 230.039062 48.585938 L 230.039062 55.449219 C 129.765625 77.648438 54.746094 167.027344 54.746094 273.976562 L 54.746094 348.238281 C 54.746094 387.175781 44.476562 425.421875 24.972656 459.121094 L 6.796875 490.523438 C -10.734375 516.238281 7.679688 551.082031 38.800781 551.082031 L 518.441406 551.082031 C 549.5625 551.082031 567.976562 516.238281 550.445312 490.523438" fill="#ffffff"/></g><g id="change3_1"><path d="M 541.9375 124.804688 C 541.9375 183.25 494.558594 230.632812 436.113281 230.632812 C 377.664062 230.632812 330.285156 183.25 330.285156 124.804688 C 330.285156 66.359375 377.664062 18.980469 436.113281 18.980469 C 494.558594 18.980469 541.9375 66.359375 541.9375 124.804688" fill="#ff1616"/></g><g id="change4_1"><path d="M 452.4375 68.117188 L 452.4375 181.496094 L 424.144531 181.496094 L 424.144531 120.710938 C 424.144531 111.933594 423.933594 106.65625 423.515625 104.882812 C 423.09375 103.109375 421.9375 101.765625 420.046875 100.855469 C 418.15625 99.945312 413.941406 99.488281 407.40625 99.488281 L 404.605469 99.488281 L 404.605469 86.269531 C 418.285156 83.328125 428.671875 77.277344 435.769531 68.117188 L 452.4375 68.117188" fill="#ffffff"/></g></g></svg>