<?xml version="1.0" encoding="UTF-8" standalone="no"?><svg xmlns="http://www.w3.org/2000/svg" xmlns:xlink="http://www.w3.org/1999/xlink" fill="#000000" height="44" preserveAspectRatio="xMidYMid meet" version="1" viewBox="0.0 0.0 44.0 44.0" width="44" zoomAndPan="magnify"><defs><clipPath id="a"><path d="M 0 0 L 43.96875 0 L 43.96875 44 L 0 44 Z M 0 0"/></clipPath></defs><g><g clip-path="url(#a)" id="change1_1"><path d="M 21.847656 13.632812 C 26.421875 13.546875 30.195312 17.1875 30.28125 21.761719 C 30.28125 21.84375 30.28125 21.921875 30.28125 22.003906 C 30.332031 26.578125 26.667969 30.328125 22.09375 30.378906 C 17.519531 30.429688 13.769531 26.765625 13.71875 22.191406 C 13.71875 22.128906 13.71875 22.066406 13.71875 22.003906 C 13.667969 17.453125 17.296875 13.714844 21.847656 13.632812 Z M 22.734375 0.0195312 C 21.5 -0.0234375 20.261719 0.0390625 19.039062 0.203125 C 18.605469 0.261719 18.25 0.566406 18.121094 0.980469 L 16.902344 4.949219 C 16.796875 5.285156 16.539062 5.554688 16.207031 5.671875 C 15.632812 5.878906 15.070312 6.109375 14.519531 6.371094 C 14.199219 6.527344 13.824219 6.519531 13.511719 6.351562 L 9.847656 4.40625 C 9.460938 4.203125 8.992188 4.242188 8.648438 4.507812 C 7.078125 5.699219 5.679688 7.101562 4.484375 8.667969 C 4.21875 9.015625 4.179688 9.480469 4.382812 9.867188 L 6.332031 13.535156 C 6.5 13.84375 6.515625 14.21875 6.371094 14.539062 C 6.105469 15.089844 5.871094 15.652344 5.667969 16.226562 C 5.550781 16.5625 5.28125 16.820312 4.941406 16.921875 L 0.976562 18.144531 C 0.558594 18.269531 0.253906 18.628906 0.199219 19.058594 C -0.0664062 21.015625 -0.0664062 22.992188 0.199219 24.949219 C 0.253906 25.378906 0.558594 25.738281 0.976562 25.863281 L 4.941406 27.085938 C 5.28125 27.1875 5.550781 27.445312 5.667969 27.78125 C 5.871094 28.355469 6.105469 28.917969 6.371094 29.46875 C 6.515625 29.789062 6.5 30.164062 6.332031 30.472656 L 4.382812 34.140625 C 4.179688 34.523438 4.21875 34.992188 4.484375 35.339844 C 5.679688 36.90625 7.078125 38.304688 8.648438 39.5 C 8.992188 39.765625 9.460938 39.800781 9.847656 39.601562 L 13.511719 37.65625 C 13.824219 37.488281 14.199219 37.480469 14.519531 37.632812 C 15.070312 37.894531 15.632812 38.128906 16.207031 38.332031 C 16.539062 38.449219 16.796875 38.71875 16.902344 39.054688 L 18.121094 43.023438 C 18.25 43.441406 18.605469 43.746094 19.039062 43.800781 C 20.992188 44.066406 22.972656 44.066406 24.925781 43.800781 C 25.355469 43.746094 25.714844 43.441406 25.84375 43.023438 L 27.0625 39.054688 C 27.167969 38.71875 27.425781 38.449219 27.757812 38.332031 C 28.332031 38.128906 28.898438 37.894531 29.445312 37.632812 C 29.765625 37.480469 30.136719 37.488281 30.449219 37.65625 L 34.117188 39.601562 C 34.503906 39.800781 34.972656 39.765625 35.316406 39.5 C 36.886719 38.304688 38.285156 36.90625 39.480469 35.339844 C 39.746094 34.992188 39.785156 34.523438 39.582031 34.140625 L 37.636719 30.472656 C 37.464844 30.164062 37.453125 29.789062 37.597656 29.46875 C 37.859375 28.917969 38.09375 28.355469 38.296875 27.78125 C 38.414062 27.445312 38.683594 27.1875 39.023438 27.085938 L 42.992188 25.863281 C 43.40625 25.734375 43.710938 25.378906 43.769531 24.949219 C 44.03125 22.992188 44.03125 21.015625 43.769531 19.058594 C 43.710938 18.628906 43.40625 18.269531 42.992188 18.144531 L 39.023438 16.921875 C 38.683594 16.820312 38.414062 16.5625 38.296875 16.226562 C 38.09375 15.652344 37.859375 15.089844 37.597656 14.539062 C 37.453125 14.21875 37.464844 13.84375 37.636719 13.535156 L 39.582031 9.867188 C 39.785156 9.480469 39.746094 9.015625 39.480469 8.667969 C 38.285156 7.101562 36.886719 5.699219 35.316406 4.507812 C 34.972656 4.242188 34.503906 4.203125 34.117188 4.40625 L 30.449219 6.351562 C 30.136719 6.519531 29.765625 6.527344 29.445312 6.375 C 28.898438 6.113281 28.332031 5.878906 27.757812 5.675781 C 27.425781 5.558594 27.167969 5.289062 27.0625 4.949219 L 25.84375 0.984375 C 25.714844 0.566406 25.355469 0.261719 24.925781 0.203125 C 24.199219 0.105469 23.46875 0.0429688 22.734375 0.0195312" fill="#ffffff"/></g></g></svg>